<?xml version="1.0" encoding="UTF-8"?>
<svg version="1.1" xmlns="http://www.w3.org/2000/svg" width="86" height="43">
<path d="M0 0 C5.87111028 2.67188252 9.03253253 5.547597 12.234375 11.125 C13.17180041 13.93727622 13.36908344 15.71246844 13.359375 18.625 C13.36324219 19.78515625 13.36324219 19.78515625 13.3671875 20.96875 C13.234375 23.125 13.234375 23.125 12.234375 26.125 C11.244375 26.125 10.254375 26.125 9.234375 26.125 C9.028125 26.681875 8.821875 27.23875 8.609375 27.8125 C6.40920831 31.51278034 3.0976878 34.1933436 -0.765625 36.125 C-3.17812192 36.30103147 -5.59713395 36.39244968 -8.015625 36.4375 C-9.32015625 36.47488281 -10.6246875 36.51226562 -11.96875 36.55078125 C-17.48873037 35.93177111 -20.46973292 33.59601263 -24.078125 29.5 C-27.8745707 24.1568542 -27.32579282 18.50468912 -26.765625 12.125 C-25.078125 8.625 -25.078125 8.625 -22.765625 6.125 C-21.940625 5.2175 -21.115625 4.31 -20.265625 3.375 C-14.35881968 -1.94112479 -7.50120386 -2.37326224 0 0 Z " fill="#53AF5D" transform="translate(26.765625,6.875)"/>
<path d="M0 0 C5.52013044 3.08039076 8.60528998 6.87836995 10.625 12.9375 C10.71725211 14.43524018 10.7550019 15.93692974 10.75 17.4375 C10.75386719 18.59765625 10.75386719 18.59765625 10.7578125 19.78125 C10.625 21.9375 10.625 21.9375 9.625 24.9375 C7.315 24.2775 5.005 23.6175 2.625 22.9375 C2.63660156 22.29941406 2.64820312 21.66132813 2.66015625 21.00390625 C2.66917969 20.17761719 2.67820312 19.35132812 2.6875 18.5 C2.69910156 17.67628906 2.71070312 16.85257813 2.72265625 16.00390625 C2.85767348 13.94586062 2.85767348 13.94586062 1.625 12.9375 C-0.04117115 12.89686168 -1.70888095 12.894779 -3.375 12.9375 C-4.035 15.2475 -4.695 17.5575 -5.375 19.9375 C-6.035 19.9375 -6.695 19.9375 -7.375 19.9375 C-7.045 17.6275 -6.715 15.3175 -6.375 12.9375 C-8.355 13.5975 -10.335 14.2575 -12.375 14.9375 C-13.375 13.9375 -13.375 13.9375 -13.4375 10.875 C-13.416875 9.905625 -13.39625 8.93625 -13.375 7.9375 C-14.365 7.9375 -15.355 7.9375 -16.375 7.9375 C-18.625 5.125 -18.625 5.125 -20.375 1.9375 C-20.045 0.9475 -19.715 -0.0425 -19.375 -1.0625 C-12.83332486 -3.24305838 -6.26299777 -2.86388954 0 0 Z " fill="#45934D" transform="translate(29.375,8.0625)"/>
<path d="M0 0 C1.8253125 0.2784375 1.8253125 0.2784375 3.6875 0.5625 C7.02977939 0.98993182 9.71968417 0.92258883 13 0 C13 0.99 13 1.98 13 3 C15.41619823 3.25030977 15.41619823 3.25030977 18 3 C18.66 2.01 19.32 1.02 20 0 C20.99 0 21.98 0 23 0 C23 3.96 23 7.92 23 12 C20.36 12 17.72 12 15 12 C15 10.02 15 8.04 15 6 C14.34 6 13.68 6 13 6 C13 7.98 13 9.96 13 12 C11.68 12 10.36 12 9 12 C8.67 10.68 8.34 9.36 8 8 C6.68 8 5.36 8 4 8 C4 9.32 4 10.64 4 12 C2.68 12 1.36 12 0 12 C0 8.04 0 4.08 0 0 Z " fill="#323232" transform="translate(59,20)"/>
<path d="M0 0 C2.5 0.25 2.5 0.25 4.5 2.25 C5.05408971 7.45844327 5.05408971 7.45844327 3.1875 10.125 C1.5 11.25 1.5 11.25 -1.5 11.25 C-1.5 12.57 -1.5 13.89 -1.5 15.25 C-2.49 15.25 -3.48 15.25 -4.5 15.25 C-4.5 13.93 -4.5 12.61 -4.5 11.25 C-6.975 10.26 -6.975 10.26 -9.5 9.25 C-9.5 6.94 -9.5 4.63 -9.5 2.25 C-8.18 1.92 -6.86 1.59 -5.5 1.25 C-5.83 3.56 -6.16 5.87 -6.5 8.25 C-5.84 8.25 -5.18 8.25 -4.5 8.25 C-4.54125 7.30125 -4.5825 6.3525 -4.625 5.375 C-4.47047219 1.5118047 -3.93075673 0.39307567 0 0 Z " fill="#E5F1E6" transform="translate(28.5,19.75)"/>
<path d="M0 0 C7.60344828 0.60344828 7.60344828 0.60344828 10 3 C10.32339354 6.03989923 10.45670212 8.14368353 9 10.875 C5.74686316 12.70488947 2.68609891 12.18128355 -1 12 C-1.02687279 10.18757948 -1.04633715 8.37504767 -1.0625 6.5625 C-1.07410156 5.55316406 -1.08570313 4.54382813 -1.09765625 3.50390625 C-1 1 -1 1 0 0 Z M3 4 C3 5.65 3 7.3 3 9 C3.99 8.67 4.98 8.34 6 8 C6 6.68 6 5.36 6 4 C5.01 4 4.02 4 3 4 Z " fill="#323232" transform="translate(48,20)"/>
<path d="M0 0 C0.99 0 1.98 0 3 0 C3 4.95 3 9.9 3 15 C-3.93359375 15.09765625 -3.93359375 15.09765625 -6 15 C-7 14 -7 14 -7.0625 10.9375 C-7.041875 9.968125 -7.02125 8.99875 -7 8 C-6.34 7.67 -5.68 7.34 -5 7 C-5 8.65 -5 10.3 -5 12 C-3.35 12 -1.7 12 0 12 C-0.27034634 9.56282742 -0.27034634 9.56282742 -1 7 C-1.99 6.34 -2.98 5.68 -4 5 C-2.68 5 -1.36 5 0 5 C0 3.35 0 1.7 0 0 Z " fill="#DEEFE0" transform="translate(13,16)"/>
<path d="M0 0 C0.99 0 1.98 0 3 0 C2.67 2.31 2.34 4.62 2 7 C2.66 7 3.32 7 4 7 C3.979375 6.030625 3.95875 5.06125 3.9375 4.0625 C4 1 4 1 5 0 C6.66617115 -0.04063832 8.33388095 -0.042721 10 0 C9.34 0.66 8.68 1.32 8 2 C6.96157435 4.31648799 5.9578025 6.64903024 5 9 C3.33388095 9.042721 1.66617115 9.04063832 0 9 C-1 8 -1 8 -1.125 4.5 C-1 1 -1 1 0 0 Z " fill="#DCECDE" transform="translate(20,21)"/>
<path d="M0 0 C2.8992226 0.46761655 3.86675182 0.86675182 6 3 C6.125 5.625 6.125 5.625 6 8 C4.35 8 2.7 8 1 8 C0.67 6.68 0.34 5.36 0 4 C-0.66 5.32 -1.32 6.64 -2 8 C-1.125 1.125 -1.125 1.125 0 0 Z " fill="#CBE7CE" transform="translate(7,20)"/>
<path d="M0 0 C0.66 0 1.32 0 2 0 C2 4.29 2 8.58 2 13 C1.01 12.34 0.02 11.68 -1 11 C-1 9.33333333 -1 7.66666667 -1 6 C-1.99 5.34 -2.98 4.68 -4 4 C-2.68 4 -1.36 4 0 4 C0 2.68 0 1.36 0 0 Z " fill="#FAFCFA" transform="translate(13,17)"/>
<path d="M0 0 C1.65 0 3.3 0 5 0 C4.34 0.66 3.68 1.32 3 2 C2.28591666 3.98356483 1.61382258 5.98315437 1 8 C0.67 8 0.34 8 0 8 C0 5.36 0 2.72 0 0 Z M-3 8 C0 9 0 9 0 9 Z " fill="#F8FBF8" transform="translate(25,21)"/>
<path d="M0 0 C1.32 0 2.64 0 4 0 C4 1.65 4 3.3 4 5 C2.68 5 1.36 5 0 5 C0 3.35 0 1.7 0 0 Z " fill="#5BB465" transform="translate(9,23)"/>
<path d="M0 0 C0.66 0 1.32 0 2 0 C2 1.98 2 3.96 2 6 C1.01 6.33 0.02 6.66 -1 7 C-1.04254356 5.00045254 -1.04080783 2.99958364 -1 1 C-0.67 0.67 -0.34 0.34 0 0 Z " fill="#6AA871" transform="translate(28,22)"/>
</svg>
